<?xml version="1.0" encoding="UTF-8" standalone="no"?>
<!-- Created with Inkscape (http://www.inkscape.org/) -->

<svg
   width="139.42128mm"
   height="215.08755mm"
   viewBox="0 0 139.42128 215.08755"
   version="1.1"
   id="svg1"
   xml:space="preserve"
   xmlns="http://www.w3.org/2000/svg"
   xmlns:svg="http://www.w3.org/2000/svg"><g
     id="layer1"
     transform="translate(-28.702711,-37.852253)"><path
       id="path1"
       style="fill:#ffffff"
       d="M 120.94869,37.85247 C 114.76884,37.82186 105,41.030696 99.769913,44.774351 c -10.645511,-0.399467 -18.487557,5.83326 -22.46318,12.858824 -4.416498,9.751472 -7.004589,15.15398 -8.824608,21.220927 -1.196935,2.830609 -2.3196,4.46393 -4.076754,6.227526 -2.176143,2.184125 -2.852272,2.633167 -9.124508,6.064747 -12.702683,6.9497 -17.201951,17.185935 -13.394014,30.472555 2.914226,10.16828 -0.05599,15.0032 -8.27133,13.46378 -8.700618,-1.63034 -4.965853,9.88245 4.339787,13.378 13.231706,4.97034 25.850873,-2.79904 29.957861,-18.44384 1.984816,-7.56078 3.795192,-10.00196 10.471196,-14.12162 5.972353,-3.68545 10.315807,-8.92012 12.563057,-15.14119 0.347998,-0.963369 5.313999,5.17222 5.283399,6.52776 -0.07423,3.29133 -0.927908,4.96581 -2.865458,5.61827 -9.864443,3.32181 -17.492279,13.72349 -21.46484,29.27159 -4.139316,16.20076 -0.400399,26.41136 10.861869,29.66279 2.530484,0.73056 2.262269,0.31082 2.899048,4.54081 1.303661,8.65996 6.306277,15.96464 13.360425,19.50889 6.855477,3.44443 16.225947,3.87813 21.232817,0.98237 1.13445,-0.65612 1.09114,-0.46804 -0.41135,1.78955 -6.14423,9.2322 -16.21923,15.65149 -25.319384,16.13235 -7.918734,0.41843 -11.981851,-2.95096 -15.779915,-13.08654 -5.961516,-15.909 -16.097085,-23.82196 -34.490918,-26.92704 -8.932438,-1.50789 -10.052869,-0.64622 -9.262484,7.12463 1.549457,15.23384 6.396104,25.07583 15.584579,31.64717 2.017689,1.443 2.018152,1.44322 0.75861,2.48408 -9.207487,7.60889 -14.989675,18.63166 -16.222266,30.92576 -0.399802,3.9877 0.07779,5.22071 2.262394,5.83892 1.345342,0.38071 11.39185,-0.0515 13.943335,-0.59996 11.55428,-2.48348 21.528358,-10.10328 27.278438,-20.83956 1.239094,-2.31358 1.459282,-2.5836 2.043803,-2.5063 0.360353,0.0476 2.67932,0.54944 5.153174,1.11517 10.765926,2.462 18.115444,2.93519 26.326044,1.69499 12.3316,-1.86268 26.01087,-8.0252 35.05729,-15.79335 26.49961,-22.75518 28.15539,-58.82068 3.26543,-71.12847 -2.29095,-1.13285 -2.2908,-1.13254 -3.66282,-5.32423 -4.07099,-12.43737 -11.22408,-20.75837 -21.00182,-24.43158 -0.9966,-0.3744 -1.37342,-0.68271 -1.65365,-1.35341 -0.44012,-1.05342 -0.44513,-1.15031 -0.0625,-1.15031 2.55757,0 10.08221,-5.43856 13.1408,-9.49762 9.65474,-12.812787 9.20981,-29.328635 2.45515,-42.067195 6.03885,0.736702 10.51546,0.984832 4.54184,-6.601148 -3.36813,-6.395095 -8.95977,-11.219644 -14.91449,-13.524133 -0.57245,-0.243734 -4.38725,-2.916291 -8.33525,-2.935844 z m 11.45822,22.412069 c 0.1013,0.153452 0.20926,0.317152 0.32452,0.491442 10.76613,16.279971 5.02628,40.632109 -10.82311,45.919679 -13.18563,4.39891 -28.574999,-6.42848 -28.574999,-20.104717 0,-5.243307 -0.04587,-5.164163 3.540869,-6.102986 18.47998,-4.837096 27.7442,-10.449552 32.75821,-19.967774 0.84293,-0.169006 1.78171,-0.235813 2.77451,-0.235644 z m -23.95358,21.847245 c -0.28119,0.01303 -0.59224,0.08093 -0.94671,0.197921 -3.20817,1.058792 -2.15242,5.687497 1.60248,7.025927 2.74558,0.97866 5.65548,-0.193392 6.99389,-2.816882 1.3546,-2.655245 -0.17319,-4.004798 -2.66134,-2.350761 -1.60972,1.070083 -1.93766,1.010607 -2.88096,-0.522449 -0.68701,-1.116541 -1.26379,-1.572842 -2.10736,-1.533756 z m 17.54725,0.206189 c -1.14666,0.016 -1.43775,1.423796 -0.31368,3.585311 0.4903,0.942805 1.37282,1.792046 2.43913,2.346626 2.80505,1.45888 7.27519,-0.61947 7.35459,-3.419429 0.0606,-2.137381 -3.29846,-3.023815 -5.35626,-1.41335 -0.90004,0.704389 -0.90017,0.704389 -2.08256,-0.198438 -0.82216,-0.627761 -1.52001,-0.907991 -2.04122,-0.90072 z m -5.36402,12.954248 c -2.83154,-0.03878 -4.89862,3.665138 -2.13837,5.195029 1.93947,1.07496 4.94973,-0.35456 4.98833,-2.368845 0.0174,-0.90938 -0.81127,-2.235851 -1.60145,-2.563151 -0.42387,-0.175563 -0.844,-0.257493 -1.24851,-0.263033 z m -18.42419,14.824939 c 0.002,-1.9e-4 0.003,0 0.005,0 0.0705,0 0.86893,0.31313 1.77405,0.69608 4.14975,1.75575 8.35637,2.73795 11.74398,2.74195 2.25939,0.003 2.76149,0.48903 3.14503,3.04787 0.28142,1.87752 1.23092,2.71827 4.48345,3.96927 7.25144,2.78907 12.83633,8.45989 16.23828,16.48788 2.16944,5.11949 2.20413,5.06291 -3.08456,5.06791 -3.39376,0.003 -3.5056,-0.0139 -3.24115,-0.50798 1.51677,-2.83412 -1.3277,-7.53237 -5.92573,-9.78751 -8.35734,-4.09893 -17.05696,-2.40197 -27.17664,5.30148 -1.364811,1.03895 -2.096772,1.46283 -1.971972,1.14205 1.68159,-4.32239 0.754303,-7.25692 -2.292367,-7.25692 -1.59869,0 -2.245231,0.88492 -3.132625,4.28759 -1.544602,5.92274 -2.984356,8.5085 -8.040853,14.4415 -1.447793,1.69876 -1.606508,2.96255 -0.533301,4.23798 1.650535,1.96155 2.381962,1.54859 14.819251,-8.35814 11.763857,-9.36993 17.281937,-11.51469 24.127207,-9.37669 5.88761,1.83889 4.77538,7.06881 -1.76061,8.27856 -6.32533,1.17075 -10.43885,3.62163 -17.49506,10.42366 -5.932381,5.71868 -10.948971,9.19885 -15.147396,10.5084 -14.478659,4.51609 -16.968193,-16.03438 -4.498433,-37.13675 3.640488,-6.16073 7.604389,-9.24382 13.416752,-10.43451 2.673757,-0.54773 2.737527,-0.57515 3.360517,-1.45004 0.41223,-0.57893 0.58949,-1.29551 0.66559,-2.69596 0.11494,-2.11474 0.32944,-3.60454 0.52194,-3.62768 z m 33.82894,37.61062 c 19.52094,-0.11256 31.19851,17.78889 23.55153,39.95415 -9.58857,27.79306 -42.49646,44.24688 -72.741811,36.37091 -1.309687,-0.34105 -3.621332,-0.94725 -5.137154,-1.34721 -4.501416,-1.18773 -5.462737,-0.61906 -8.216552,4.85862 -5.266856,10.47642 -13.199999,16.69616 -24.139612,18.92649 -2.99979,0.61156 -8.147307,0.57768 -8.147307,-0.0537 0,-1.86784 2.8008,-10.97079 4.286561,-13.93248 3.332237,-6.64241 9.931887,-12.94482 15.158764,-14.47509 4.779983,-1.39944 4.65803,-4.76154 -0.224276,-6.17637 -10.635021,-3.08191 -18.229635,-14.56676 -19.316133,-29.21113 -0.164883,-2.22238 0.690288,-2.34608 6.739123,-0.97462 12.693567,2.87801 20.755665,10.35918 25.92555,24.05796 3.912857,10.368 8.95433,14.48774 18.230411,14.89574 20.195016,0.88825 38.601636,-18.61063 41.162346,-43.60458 0.50337,-4.91324 -4.82158,-5.38515 -5.84874,-0.51831 -4.60517,21.82003 -29.944422,22.14772 -35.444347,0.45837 -1.339152,-5.28104 -1.182351,-5.70447 2.842721,-7.67034 5.04523,-2.46411 12.104356,-7.88215 15.057476,-11.55691 2.95002,-3.67092 8.63736,-6.5428 17.44855,-8.81032 3.07539,-0.79143 6.02419,-1.17506 8.8129,-1.19114 z" /></g></svg>
