<?xml version="1.0" encoding="UTF-8" standalone="no"?>
<!-- Created with Inkscape (http://www.inkscape.org/) -->

<svg
   width="126.01992mm"
   height="264.97403mm"
   viewBox="0 0 126.01992 264.97403"
   version="1.1"
   id="svg1"
   xml:space="preserve"
   xmlns="http://www.w3.org/2000/svg"
   xmlns:svg="http://www.w3.org/2000/svg"><defs
     id="defs1"><linearGradient
       id="swatch7"><stop
         style="stop-color:#1a1a1a;stop-opacity:1;"
         offset="0"
         id="stop7" /></linearGradient></defs><g
     id="layer1"
     transform="translate(-53.604947,-13.171815)"><path
       style="fill:#ffffff;fill-opacity:1;stroke:none"
       d="m 70.351984,151.14583 v -11.1125 c 1.835135,0.57964 1.320397,2.92983 1.322917,4.49792 0.0072,4.49372 0.529166,8.99328 0.529166,13.49375 l 3.96875,0.26458 0.529167,-8.46666 h 1.852083 c 0,2.19142 -1.010363,7.96589 0.684939,9.59421 1.234049,1.18526 4.107533,0.72454 5.66506,0.72454 0,-5.03497 -0.264583,-10.03896 -0.264583,-15.08125 0,-1.76315 0.613795,-4.94134 -0.196395,-6.53048 -0.593156,-1.16345 -3.731425,-0.61327 -4.830688,-0.61327 -3.651303,0 -7.683397,-0.0449 -9.383923,-3.96875 -1.857759,-4.28663 0.270906,-10.96015 0.982385,-15.34584 1.102146,-6.79375 0.03756,-13.59482 0.774557,-20.372911 0.386879,-3.558116 2.528891,-7.537055 3.427133,-11.112499 0.580875,-2.312165 0.959897,-8.823137 2.507413,-10.427561 0.844465,-0.875528 2.932807,-0.918823 4.073685,-1.214105 -0.03288,2.776494 -2.221941,1.81029 -3.266871,3.76072 -1.577439,2.944393 -1.848611,7.767791 -2.441679,11.055946 -1.01633,5.634878 1.769571,9.613188 2.004383,15.08125 2.468987,-0.49651 4.612978,-2.89863 6.879167,-4.03244 4.639873,-2.321404 10.435683,-4.257171 15.61042,-4.836819 5.42436,-0.607602 11.24353,2.811973 16.66874,3.048425 l 2.11667,-21.695832 c 3.65138,3.61286 7.41914,12.714711 8.55138,17.727082 0.56536,2.502754 0.2517,5.175634 0.98505,7.672914 1.18025,4.01907 4.11598,7.69738 4.61694,11.90625 0.51801,4.35214 -12.53777,4.20107 -5.15754,9.525 v 0.26458 l -3.96875,2.11667 c -0.83649,-2.92608 -0.42689,-5.13534 -0.91644,-7.9375 -0.39641,-2.26901 -1.67301,-4.34033 -1.94517,-6.61458 -0.31608,-2.64125 0.39276,-5.7575 -1.16756,-8.17432 -1.33138,-2.06222 -5.16261,-2.52428 -7.34791,-3.19622 -8.39949,-2.582679 -13.670796,-3.221755 -21.960414,-0.007 v 0.26458 l 10.847914,1.85208 c -2.89647,8.53942 -3.248685,14.9099 -3.174998,23.8125 -5.931259,-4.68713 0.02451,-17.35357 1.587498,-22.75416 -7.37785,-3.61151 -14.988116,-1.31753 -21.166663,2.90285 -1.438809,0.98281 -4.049809,1.85777 -4.854371,3.47471 -1.362328,2.7379 1.26625,4.5802 1.059157,7.11618 -0.484216,5.92946 -2.828283,11.77349 -3.083953,17.72709 L 85.9624,135.8 c 0,6.35118 0.529166,12.70027 0.529166,19.05 0,1.45687 0.83489,5.39851 -0.159647,6.46535 -1.286566,1.3801 -5.236753,1.2064 -6.984102,1.20757 0,4.94104 0.646536,9.88116 0.525291,14.81666 -0.05311,2.16166 -0.918525,4.16454 -0.766192,6.35 0.237542,3.408 1.707938,6.65447 2.047864,10.05417 0.440752,4.40803 -0.399241,9.46969 0.782115,13.75833 0.875552,3.17849 2.899661,5.9969 4.214963,8.99583 2.164225,4.93449 3.879197,10.12627 5.201225,15.34584 0.718319,2.83603 1.979966,6.03222 1.351492,8.99583 -1.630294,7.68776 -11.603006,6.96976 -18.119258,7.13987 -2.281708,0.0596 -7.973673,-0.60913 -8.202083,2.38513 9.707111,0.20036 19.349262,3.53118 29.104165,3.95833 9.592851,0.42007 19.683201,-2.08156 29.104161,-3.67232 4.69578,-0.79289 10.98863,-0.67795 15.34175,-2.58867 1.53639,-0.67436 2.08482,-2.67462 2.83386,-4.04734 1.59675,-2.92631 3.69102,-7.8955 6.69523,-9.525 -1.77645,3.33765 -3.94019,6.46162 -5.73917,9.78958 -0.70889,1.31139 -1.07989,3.64891 -2.25855,4.56997 -2.95769,2.31136 -10.30745,2.176 -13.9627,2.61482 -10.12002,1.21489 -20.05997,3.70261 -30.162498,4.98604 -0.667497,5.28171 -0.529166,10.8122 -0.529166,16.13959 0,1.13052 -0.568271,4.53288 0.424231,5.28044 0.874922,0.65899 3.333063,-0.10847 4.338273,-0.2746 3.88924,-0.64269 7.77505,-1.26933 11.64166,-2.04256 12.96675,-2.59301 25.89487,-5.39306 38.89375,-7.82868 3.75213,-0.70305 12.16142,-0.54127 14.99715,-3.20787 1.58504,-1.49051 0.26208,-6.13404 0.10676,-8.06632 -0.56759,-7.06145 -2.38952,-14.11625 -0.46772,-21.15135 0.34702,-1.27034 1.99949,-1.36156 3.09089,-1.53014 2.95333,-0.45613 6.86504,-1.27391 9.78958,-0.60184 -2.05546,-3.55288 -7.21252,-5.28395 -9.89125,-8.47054 -2.28129,-2.71382 -3.89988,-8.95527 -6.6448,-10.83669 -2.70591,-1.85469 -8.90923,0.28627 -9.81347,-5.03443 -0.82624,-4.86175 6.24765,-9.80913 7.29953,-14.2875 -9.16588,0.41887 -17.89037,12.29161 -21.04683,20.10833 -1.12115,2.77646 -0.46179,6.1295 -1.96009,8.73125 -3.35675,5.82894 -9.36317,4.51778 -13.45659,8.75882 -2.00459,2.07687 -0.95937,6.83793 -2.75771,8.24168 -2.045,1.59628 -5.21853,-1.61271 -4.32703,-3.77133 1.47906,-3.58131 6.44018,-7.77724 9.417,-10.15991 3.33222,-2.66715 5.72676,-6.14882 8.73125,-9.15468 3.26096,-3.26244 5.74519,-7.2476 8.6255,-10.84791 2.05682,-2.57097 4.72796,-5.23055 5.662,-8.46667 -7.50226,0 -15.00727,0.0735 -22.48959,-0.25417 -2.76974,-0.12129 -6.05132,0.55084 -8.73125,-0.21927 -4.44606,-1.27762 -8.46267,-5.37239 -12.69999,-7.37934 -2.84438,-1.34719 -5.882203,0.12887 -7.788272,2.60992 -1.788586,2.3281 -0.484023,7.2984 -0.417691,10.00536 0.155998,6.36649 -0.26485,12.67578 0.01429,19.05 0.11963,2.73176 1.335512,5.49075 1.047917,8.20208 -2.899484,-1.55956 -2.578961,-8.7619 -2.649709,-11.64166 -0.145437,-5.91999 0.196273,-11.48012 0.267442,-17.4625 0.03014,-2.53371 -0.665456,-6.12883 0.468939,-8.46279 0.83002,-1.70775 3.741254,-3.50869 5.352914,-4.46178 1.62659,-0.96192 3.32657,0.18311 4.7625,1.02139 3.61202,2.10864 6.94576,4.69622 10.58333,6.75217 2.63274,1.48802 7.10039,0.65309 10.05417,0.65309 8.18793,0 17.13248,1.27756 25.13541,-0.59144 2.37298,-0.55418 8.99462,-2.12564 9.4607,-4.97522 0.34122,-2.0863 -1.22284,-4.95022 -1.94008,-6.86876 -1.69817,-4.54243 -2.8554,-9.29642 -4.76332,-13.75833 -0.9016,-2.10849 -2.81542,-4.80306 -2.49271,-7.14375 h 0.26458 c 2.79066,6.70284 5.67596,13.3042 8.25292,20.10833 0.99735,2.63342 3.03211,6.6683 2.7965,9.52113 -0.10942,1.32489 -1.68032,2.46025 -2.46374,3.44346 -1.97612,2.48008 -3.70124,5.25908 -5.3966,7.9375 -0.8192,1.2942 -2.37619,3.42534 -1.59322,5.02689 4.48868,9.18148 12.41228,-2.62491 15.60206,-5.51113 1.93657,-1.75229 5.21368,-4.3125 5.38252,-7.18868 0.10545,-1.79638 -1.76703,-3.68682 -2.77017,-5.02708 -2.46135,-3.28856 -4.46917,-6.80595 -6.5811,-10.31875 -6.71269,-11.16526 -13.52649,-22.04203 -21.16381,-32.54375 -3.5483,-4.87909 -7.6827,-11.52323 -13.23203,-14.2875 8.09111,-7.06862 7.84143,-17.93916 7.16743,-27.78125 -0.2881,-4.20681 -0.37845,-8.38227 -1.74775,-12.435414 -1.82928,-5.414705 -5.1246,-10.236438 -6.81628,-15.874999 -2.22845,-7.427712 -0.94649,-14.317229 -6.18874,-20.901065 -2.7429,-3.44488 -6.33562,-2.950579 -10.14174,-4.086136 -2.72929,-0.814291 -5.23944,-2.79408 -7.09475,-4.910714 -1.64026,-1.8713 -3.5928,-6.189641 -1.89475,-8.616722 0.72153,-1.031316 2.36188,-0.854889 3.17683,-1.994371 1.21239,-1.695197 1.92991,-4.423066 2.81835,-6.32203 0.89439,-1.911688 -0.2834,-4.38636 0.50814,-6.322449 0.45824,-1.12083 1.88774,-1.327681 2.63603,-2.20077 1.54431,-1.801893 -0.0719,-4.620519 -1.49747,-5.949653 -2.14299,-1.997972 -5.00673,-3.082063 -7.91279,-3.245021 -2.05982,-0.115513 -4.05369,-0.732481 -6.085423,-0.160666 -14.817021,4.170143 -1.995138,20.699091 -7.966083,29.784599 -2.61016,3.971673 -8.533054,5.927206 -12.935999,7.102699 -3.124777,0.834251 -6.111117,0.849496 -7.854616,4.0098 -3.644391,6.605911 -2.982472,14.527698 -3.862797,21.695832 -0.901705,7.342236 -2.88482,14.623477 -3.583502,21.960416 -0.934842,9.816974 -0.04492,19.804314 -0.04492,29.633334 0,7.36964 -0.655572,21.319 7.9375,23.54791 m 37.30625,91.28125 c 1.45235,5.74601 9.18187,2.89275 13.22917,2.38125 l 0.52916,2.38125 -25.135415,0.79375 c 0.886752,-2.54797 6.354735,-1.26049 8.465655,-2.08829 1.59347,-0.62489 1.87255,-2.3175 2.91143,-3.46796 m -12.700001,35.71875 0.79375,-21.69584 c -9.171509,-1.72801 -18.536465,-2.97908 -27.781249,-4.26782 -3.344765,-0.46629 -8.302852,-2.1385 -11.612881,-1.20432 -1.303207,0.3678 -1.242212,2.26267 -1.364976,3.35548 -0.297325,2.6468 -2.408412,9.47634 -0.773128,11.77027 1.327229,1.86181 8.337508,2.29809 10.575985,2.97229 10.038647,3.02347 20.19439,5.82755 30.162499,9.06994 z"
       id="path7" /></g></svg>
