<?xml version="1.0" encoding="UTF-8" standalone="no"?>
<!-- Created with Inkscape (http://www.inkscape.org/) -->

<svg
   version="1.1"
   id="svg1"
   width="678.71185"
   height="620.62659"
   viewBox="0 0 678.71185 620.62659"
   sodipodi:docname="favicon.svg"
   inkscape:version="1.4.2 (ebf0e940d0, 2025-05-08)"
   xmlns:inkscape="http://www.inkscape.org/namespaces/inkscape"
   xmlns:sodipodi="http://sodipodi.sourceforge.net/DTD/sodipodi-0.dtd"
   xmlns="http://www.w3.org/2000/svg"
   xmlns:svg="http://www.w3.org/2000/svg">
  <defs
     id="defs1" />
  <sodipodi:namedview
     id="namedview1"
     pagecolor="#ffffff"
     bordercolor="#666666"
     borderopacity="1.0"
     inkscape:showpageshadow="2"
     inkscape:pageopacity="0.0"
     inkscape:pagecheckerboard="0"
     inkscape:deskcolor="#d1d1d1"
     inkscape:zoom="0.76171875"
     inkscape:cx="261.25128"
     inkscape:cy="505.4359"
     inkscape:window-width="1876"
     inkscape:window-height="1000"
     inkscape:window-x="0"
     inkscape:window-y="0"
     inkscape:window-maximized="1"
     inkscape:current-layer="g1">
    <inkscape:page
       x="0"
       y="0"
       width="678.71185"
       height="620.62659"
       id="page2"
       margin="0"
       bleed="0" />
  </sodipodi:namedview>
  <g
     inkscape:groupmode="layer"
     inkscape:label="Image"
     id="g1"
     transform="translate(-153.17316,-163.80553)">
    <g
       id="g8"
       transform="translate(-5.2512821,49.88718)">
      <path
         style="fill:#f9f9f9;stroke-width:0.65641;stroke-linecap:round;stroke-linejoin:round"
         d="m 365.0359,113.92949 c -6.47834,0.25099 -13.20635,-0.43252 -19.35897,1.77051 -3.10337,0.18225 -6.18037,0.92031 -9.00129,1.90256 -5.75669,0.99766 -11.24546,3.14376 -16.75641,4.94616 -7.39009,2.4369 -14.59001,5.52163 -21.64103,8.66538 -1.91482,0.98759 -3.5491,2.08076 -5.64872,2.74744 -1.4556,1.44732 -3.90062,1.46395 -5.32564,2.9859 -4.67456,2.44321 -9.16152,5.57934 -13.7923,8.34487 -3.22511,2.25085 -6.46916,4.72501 -9.51154,7.06666 -7.0855,4.83098 -13.05135,11.20907 -19.54308,16.83542 -4.81875,4.30492 -8.39612,9.62509 -12.50692,14.57228 -3.27984,4.50629 -6.00484,9.53025 -8.64872,14.31922 -1.08504,3.51186 -2.611,7.00665 -2.25513,10.84616 -0.0286,4.54048 -1.03992,10.4685 3.72308,13.13333 6.03819,4.203 14.10142,4.50717 20.90898,2.24103 12.01771,-1.23339 24.08659,-5.40687 36.08846,-2.64615 8.30165,2.66666 15.13256,8.90783 18.36153,17.03333 1.66892,4.65409 3.55326,9.33366 3.43625,14.32288 1.6772,26.83712 0.0622,53.99894 -3.49009,80.77456 -1.21462,6.10568 -0.8581,12.46088 -2.58846,18.45512 -0.5616,8.67481 -2.88764,17.0044 -4.04197,25.58716 -1.84257,9.46201 -3.54112,19.14433 -6.22854,28.35515 -1.37783,1.70984 -0.28622,4.51038 -2.65129,5.60513 -8.72436,7.4409 -17.20389,15.24071 -26.21922,22.27693 -21.0194,18.41001 -42.22827,36.79392 -60.5218,58.00897 -6.55514,7.13672 -12.50798,14.98198 -18.40257,22.5564 -0.68806,1.28906 -2.13727,2.33052 -2.38589,4.03206 -2.93259,3.68967 -4.95867,8.0462 -7.46667,11.89615 -0.45234,2.33724 -2.42249,3.88977 -2.75898,6.30513 -2.90859,4.88937 -4.42286,10.52885 -6.22435,15.96026 -2.42501,8.73611 -2.40279,18.02077 -1.86667,26.99615 1.60053,4.15393 2.39199,8.87663 4.76282,12.87308 3.47574,6.91761 9.8239,11.93885 15.76282,16.66795 2.88565,1.63604 5.84834,3.3569 8.82308,4.92179 2.02636,1.96931 5.31131,2.18829 7.80513,3.61795 1.67825,1.40988 3.8134,1.70918 5.93461,2.26026 9.31882,3.71971 19.19657,5.88218 29.0718,7.6282 4.85657,1.15198 9.91371,1.20656 14.86025,1.78205 -0.3733,2.90089 -2.05887,5.45535 -1.706,8.55181 -0.044,6.70187 -0.72176,13.62955 0.81626,20.18922 1.42474,2.51148 1.42601,5.9577 3.13718,8.55897 5.00271,11.57691 13.96577,21.39611 24.83846,27.51026 1.85732,1.83827 4.71932,1.73311 6.80513,3.23077 3.2171,0.52576 5.8567,2.54838 9.25769,2.53333 4.29818,1.7663 9.46717,2.0351 13.92564,0.91154 1.63894,-3.85533 -1.86981,-6.97367 -2.82692,-10.45512 -1.16731,-2.67472 -1.88072,-5.48718 -2.99872,-8.13591 -0.91306,-4.35611 -2.40191,-8.53549 -2.34359,-13.0782 2.6494,6.08507 5.8789,12.02994 9.65641,17.33334 7.30342,10.00738 16.6768,19.34844 28.56702,23.79284 6.88422,2.69023 14.01576,4.81461 21.49195,4.53921 6.53091,-0.089 13.2785,1.12091 19.69103,-0.23462 3.13436,-1.93742 -0.067,-5.16503 -1.36282,-7.02949 -2.85867,-4.08032 -5.90158,-8.35648 -7.65513,-13.23589 -2.26174,-2.83988 -2.9317,-6.76558 -4.06153,-10.15898 -1.45297,-2.54662 -1.33594,-5.9324 -2.58591,-8.68333 -0.24679,-1.61102 -1.15511,-5.4553 0.28847,-2.2 1.84796,2.72446 3.09129,5.87562 4.75256,8.60256 2.51009,2.95216 4.31277,6.71122 6.89425,9.73733 6.23973,8.80969 14.41868,16.74245 24.62754,20.56908 1.98817,1.24645 4.42863,1.15001 6.55385,2.16154 5.79456,0.30825 11.32274,2.7555 17.17397,1.79584 7.38871,-0.74118 15.05336,-0.86328 22.15039,-2.94584 3.01735,-0.57877 7.73373,-0.31407 9.01026,-3.69616 -0.92359,-3.32639 -3.99978,-5.84174 -5.33333,-9.13461 -0.90166,-2.51466 -2.57713,-4.19705 -3.34488,-6.73333 -1.61624,-1.70145 -1.49089,-4.43985 -2.98333,-6.25641 -0.57951,-3.07883 -2.81646,-5.20834 -3.26327,-8.39343 -1.77587,-4.89286 -3.68378,-9.7285 -5.13801,-14.69632 -1.33233,-2.61344 -1.00249,-5.94415 -2.65641,-8.45128 0.19784,-1.23935 -2.12886,-6.35096 0.16154,-3.55128 8.82343,8.69338 18.30807,16.82944 28.43204,23.93974 1.18722,0.86881 2.00126,2.26873 3.71411,2.44616 4.28968,3.57708 9.18059,5.94364 13.7359,9.1641 3.16991,1.9484 6.6186,3.45736 9.55769,5.59231 2.2941,0.45205 3.93252,2.30451 6.19615,2.80513 1.78739,1.46849 4.11641,1.81374 6.03205,3.05641 3.1263,0.47463 5.52562,2.63217 8.80642,2.89358 3.01003,1.75958 6.70734,1.91559 9.83846,3.53078 13.4802,3.54677 27.60485,4.56268 41.47435,3.44743 0.93114,6.56675 -0.54835,13.46573 1.24488,19.87436 0.77177,1.80128 1.14003,4.58718 3.74102,4.78974 5.40844,1.54056 12.74918,-0.60252 13.99231,-6.68846 1.92226,-4.34251 3.26668,-9.24095 4.15898,-13.70641 3.3129,1.99986 7.1667,3.01721 10.71923,4.19616 6.28715,1.96228 13.21312,0.9813 19.74537,1.06674 4.48798,0.10739 8.51385,-1.8915 12.82257,-2.78854 1.84233,-1.39256 4.52895,-1.32679 6.20514,-3.00512 10.44817,-5.54062 18.78583,-14.60802 24.58845,-24.79616 0.38829,-0.9326 2.37777,-4.58944 1.77821,-2.18462 -0.44012,4.58207 -2.58134,8.86305 -3.88077,13.00257 -1.63775,3.82043 -3.15401,7.92644 -5,11.76666 -1.85144,2.80007 1.45719,4.80407 4.00385,4.18462 4.00403,0.0691 8.06766,-0.38155 11.79487,-1.6641 8.74318,-1.35199 17.21443,-4.79046 24.93846,-9.02949 7.71511,-4.71423 14.73313,-10.94431 19.33975,-18.84359 4.06278,-6.04034 6.79856,-12.9472 9.42948,-19.6859 0.70936,-3.81983 2.52549,-7.25949 2.83334,-11.21025 2.66611,-8.44319 2.40275,-17.51296 3.08205,-26.27565 0.78546,14.80088 1.99834,29.77918 -0.24359,44.51667 -1.53934,6.75481 -4.63644,12.9588 -6.70513,19.49615 -1.06209,3.25742 3.05532,5.20894 5.37179,3.02821 7.52217,-5.43912 14.15937,-12.20283 19.99487,-19.4 0.76761,-1.74082 2.73013,-2.44747 2.8641,-4.55641 4.59883,-6.47675 7.7773,-13.91552 10.31289,-21.36147 4.28061,-14.86451 4.12171,-30.7175 1.29994,-45.83212 -1.33784,-10.96125 -4.55175,-21.55346 -7.56411,-32.11154 -0.82165,-3.17633 -2.17035,-6.06379 -2.79615,-9.31538 -1.63284,-2.28569 -1.25574,-5.51516 -2.96666,-7.78847 -0.28958,-3.42563 -2.3751,-6.04694 -2.87821,-9.41153 -1.4254,-2.41719 -1.51559,-5.5042 -3.06026,-7.79616 -1.79915,-7.28182 -4.92517,-14.15494 -6.40769,-21.49231 -1.06738,-3.80981 -1.92223,-7.73148 -2.80256,-11.59871 -0.84536,-5.93209 -2.65157,-11.67306 -2.76984,-17.73358 -0.80464,-10.56592 -1.8898,-21.23777 -1.34683,-31.76642 4.94289,-3.57102 9.94308,-7.61295 14.8782,-11.1 1.82211,-0.82509 2.57489,-2.81761 4.67437,-3.34103 18.34987,-14.75192 36.41522,-29.99517 52.45903,-47.32999 5.54656,-5.70273 10.75018,-11.68211 15.43968,-18.05206 4.17003,-5.57535 8.22747,-11.23923 11.75738,-17.24127 1.43603,-2.82395 3.34802,-5.32727 4.35797,-8.23694 1.51362,-1.62765 1.54322,-3.95656 3.06544,-5.57179 0.58158,-2.27789 2.38802,-3.78645 2.52304,-6.29102 2.37476,-5.70276 3.97306,-11.64745 5.72055,-17.56924 1.75387,-11.66375 1.92565,-23.74668 -0.19489,-35.36795 -2.42963,-4.57454 -4.16879,-9.79576 -7.94486,-13.66923 -2.26665,-3.16201 -5.17612,-5.6576 -8.48817,-7.5562 -5.65865,-4.5361 -12.69434,-6.80051 -19.41954,-9.14636 -20.46785,-6.43016 -42.33787,-6.91031 -63.66025,-6.93077 -30.82339,0.3857 -61.62357,3.29237 -92.03462,8.2282 -4.73298,1.2283 -9.74664,0.89142 -14.43205,2.62052 -4.26444,0.19373 -8.33629,1.30908 -12.43974,2.19872 -3.40424,0.41888 -5.04431,-3.76545 -7.89133,-5.0934 -10.86992,-8.84912 -21.34032,-18.12199 -32.37169,-26.76242 -6.45857,-5.47345 -13.15754,-10.62853 -19.8835,-15.85866 -6.66858,-4.9042 -12.94821,-10.43359 -19.64194,-15.21629 -1.92761,-2.31039 -5.29217,-3.24934 -7.47308,-5.53333 -5.68628,-4.46109 -11.65004,-8.65247 -17.26795,-13.05385 -1.79016,-0.55512 -3.01118,-2.44197 -4.80897,-3.04744 -2.19353,-1.59041 -4.31072,-3.34751 -6.42821,-4.85256 -1.24752,-0.69707 -2.27588,-2.14129 -3.95898,-2.42051 -6.33422,-4.38416 -12.49035,-9.2757 -19.04487,-13.2859 -2.61693,-1.76632 -5.47425,-3.49532 -7.97051,-5.45 -10.58365,-6.04943 -20.86271,-12.76531 -32.08308,-17.68718 -2.39086,-0.73577 -4.16901,-2.30446 -6.27076,-3.2718 -4.02374,-1.22414 -7.67214,-3.59664 -11.72565,-4.57948 -1.99761,-1.94484 -5.26247,-1.36562 -7.57436,-3.01923 -6.54569,-1.92242 -12.96326,-4.55999 -19.68333,-5.84103 -3.67107,-0.43339 -6.9545,-2.24258 -10.78284,-1.82161 -5.75382,-0.20879 -11.51274,-0.2291 -17.26972,-0.1989 z m 138.32051,59.50384 c 0.0414,0.19745 -0.026,-0.0806 0,0 z m 90.10513,93.79103 c -7.2596,1.68743 -14.53285,3.806 -21.73077,5.98974 -3.07727,1.02564 -6.29752,1.57503 -9.25641,2.83975 -3.37022,0.46177 -6.06256,2.38645 -9.47308,2.77435 -2.73697,1.40731 -5.92152,1.70469 -8.66923,3.10385 -3.04625,0.46836 -5.4137,2.36017 -8.54359,2.59616 -3.81206,1.70246 -7.98218,2.86244 -11.86538,4.70384 -5.11877,0.91154 -9.62492,3.91538 -14.65713,5.34557 -4.85704,2.09123 -9.93789,3.76014 -14.78902,5.60315 -1.75848,1.3486 -4.59165,1.08435 -6.24488,2.79744 -2.88953,0.85454 -5.86877,1.91938 -8.44102,3.31153 -1.62163,0.88881 -3.8674,1.26578 -5.35642,2.51154 -9.90135,3.5701 -19.27751,8.78624 -29.11922,12.32051 -3.12312,2.19699 -7.32407,3.27991 -10.87436,5.01411 -2.24747,0.39012 -3.51322,2.20408 -5.77693,2.7 -3.76073,2.56494 -8.63113,3.65084 -12.61307,6.09785 -7.57244,4.17772 -15.79899,7.33895 -23.57923,11.27138 -2.15284,0.83847 -4.26472,1.45698 -5.80898,3.15769 -2.06603,0.93475 -5.20046,2.73418 -6.5,3.26154 3.48758,-2.92991 7.31894,-5.72173 11.10129,-8.11026 1.89527,-0.52186 2.68753,-2.27751 4.51666,-2.89359 1.07258,-1.36265 3.31825,-1.36156 4.36539,-2.98333 4.72573,-3.00958 9.46795,-5.68028 14.27179,-8.65256 5.45297,-3.49233 11.57759,-6.0753 16.93461,-9.56795 1.56754,-0.74224 3.44106,-1.41588 4.84616,-2.50641 6.12589,-2.6587 11.87002,-6.50233 18.25128,-8.66282 8.21032,-5.2484 17.43961,-8.66784 26.38077,-12.53206 2.07551,-0.42045 3.28635,-2.12963 5.53333,-2.37179 2.44004,-1.44603 5.51641,-1.44719 7.57565,-3.29231 2.75293,-0.6228 5.08321,-2.03367 7.87179,-2.68846 5.26389,-2.27518 10.64289,-4.27497 16.05,-6.04359 5.86767,-1.5717 11.54131,-4.30235 17.69359,-4.9282 2.86672,-2.02863 6.80256,-1.41134 9.88333,-3.13334 4.8572,-0.604 9.3014,-2.52626 14.2359,-2.76025 5.08286,-1.76648 10.63424,-1.57931 15.85513,-2.93077 5.91542,-0.63703 12.50232,-1.06942 17.93205,-1.34231 z m -56.00128,8.35897 c -0.0263,0.0497 0.0453,-0.16253 0,0 z m -137.84231,63.03974 c -0.0641,0.15584 0.0575,-0.19047 0,0 z m 405.04103,41.23847 c -0.0319,0.12422 0.0228,-0.1266 0,0 z m -206.08078,57.25 c -0.39335,11.26922 -0.25142,22.69539 -2.34999,33.82051 -1.10624,2.89645 -0.9774,6.09682 -2.63462,8.70897 -0.87649,5.87893 -3.95403,11.25308 -6.07308,16.76026 -1.68959,2.62232 -3.83975,5.59725 -3.79615,8.8141 2.21158,2.85108 6.75545,1.71067 9.93841,2.52779 10.43552,0.79675 20.93509,-0.48202 31.32313,-1.45599 3.34419,-0.8807 7.29371,-2.38025 7.9859,-6.32179 1.93005,-3.98302 3.20566,-8.37119 4.78974,-12.37052 1.22234,-2.88795 1.26602,-6.06232 2.72308,-8.83589 1.11893,-6.37068 3.27349,-12.49826 3.79684,-19.00843 0.91043,-5.10155 1.69877,-11.74095 2.32624,-15.97619 0.21189,5.13258 1.14617,10.1749 1.83717,15.19872 0.0767,7.29884 0.75641,14.69187 -1.1641,21.70641 -0.10181,4.93374 -2.01788,9.38621 -3.21666,14.09871 -0.85061,2.18402 -1.67636,4.13658 -2.64616,6.16154 -0.76178,3.82487 4.63423,4.91668 6.79487,2.56154 4.8749,-0.5584 9.35718,-2.24866 14.10256,-3.31025 1.12221,-0.93423 2.60608,-1.05045 2.10642,0.89358 2.76407,10.97434 2.31027,22.5589 2.95897,33.80257 0.60794,5.95123 -0.77531,11.69321 -1.31909,17.56514 -0.0397,5.70945 -1.95604,11.07155 -2.55527,16.71179 -1.77914,2.94175 -1.21458,6.73264 -3.00384,9.68205 -1.58892,6.78117 -4.8574,13.15123 -7.56026,19.60512 -1.91552,1.88285 -1.95812,4.72942 -3.80128,6.68462 -1.05327,2.82191 -3.27255,5.09745 -4.42436,7.74743 -1.45183,1.34266 -1.59195,3.38599 -3.1218,4.62565 -0.52243,1.48462 -2.25132,2.32117 -2.73589,4.05 -9.53371,12.77268 -20.93599,24.2069 -33.44529,33.97245 -5.78182,4.35857 -12.01548,8.01507 -18.23933,11.63524 -2.06275,1.01305 -4.38104,1.34668 -6.05,2.82564 -2.31442,0.76859 -4.18536,2.00806 -6.63205,2.45641 -9.63081,4.34794 -20.27689,4.89646 -30.6119,6.24117 -6.57104,0.59199 -12.91068,-1.48989 -19.4644,-1.79839 -6.51329,-0.98409 -12.8787,-2.86398 -19.0737,-4.89919 -2.85687,-0.52261 -5.32808,-2.2937 -8.30257,-2.55513 -2.23678,-1.67155 -5.39381,-1.70089 -7.83205,-3.24743 -1.81807,-1.02471 -3.55613,-2.15955 -5.71794,-2.79616 -4.85497,-2.1866 -9.21027,-5.02152 -13.80128,-7.42949 -2.8242,-1.98762 -6.11322,-3.64158 -8.84872,-5.56282 -1.50993,-1.79954 -3.84757,-2.4351 -5.60257,-4.09615 -1.87684,-1.22424 -3.05503,-2.97609 -5.22692,-3.74744 -11.35846,-8.80196 -21.88879,-18.80796 -31.30769,-29.60128 -1.09516,-2.09311 -1.97525,-4.02679 -2.31283,-6.49872 -1.97443,-5.84691 -3.37043,-11.94703 -4.59999,-18.03461 -1.5521,-7.32568 -3.09963,-14.67092 -3.74305,-22.17185 -2.14079,-10.86124 -2.87877,-21.61286 -3.14352,-32.67691 -0.40806,-11.58709 -0.46084,-23.23016 -0.65318,-34.84868 4.39899,-6.85135 9.01213,-13.79547 11.40385,-21.56923 1.23846,-1.48398 -0.12758,3.9429 0.01,5.22849 -1.1106,5.67798 -1.56587,11.62704 -2.59583,17.40356 -2.212,3.04223 1.43791,6.14574 4.55,5.55513 7.41987,1.2777 15.10799,2.35898 22.74462,2.68087 5.32157,-0.0433 10.99561,1.40342 16.08615,0.0717 4.73322,-4.9351 7.2779,-11.39641 10.21186,-17.48543 2.42407,-4.42551 3.98833,-9.3992 5.95096,-14.07482 0.50298,-2.7127 2.0759,-4.88753 2.49102,-7.64743 2.0514,-5.76107 4.18065,-11.37571 5.68718,-17.23847 1.35958,-3.76698 0.25695,1.39885 0.26541,3.11089 -0.96382,9.7053 -1.72968,19.56549 -4.1013,29.06988 -1.54813,7.26802 -4.67524,14.13121 -7.98462,20.79616 -1.41263,4.05016 3.97674,4.85897 6.79616,4.62179 10.45235,-0.1881 21.05147,0.47345 31.40897,-1.03205 2.39683,-1.21095 5.27621,-1.57245 7.00641,-4.01923 1.91004,-2.29359 3.25451,-4.72294 5.10128,-7.09487 1.49927,-2.75479 2.96465,-5.46005 4.51154,-8.09231 0.6504,-2.27995 2.47111,-4.021 2.72564,-6.56411 1.10263,-3.06325 2.56446,-5.72863 3.42949,-8.82051 0.88166,-2.38867 2.14394,-4.67321 2.62179,-7.30769 2.79573,-7.2101 5.3589,-14.57732 7.49744,-22.06282 0.0833,7.02734 -2.08275,13.7835 -2.38974,20.83974 -1.21803,4.16171 -1.5212,8.58412 -2.40257,12.81795 -1.36393,2.90242 -0.87819,6.35739 -2.76539,8.97436 -0.77609,4.06589 -2.61236,7.90323 -4.15367,11.76129 -0.9136,2.9319 -5.19639,7.00998 -1.73735,9.70922 6.23177,2.02219 13.07629,0.41099 19.53487,0.63405 5.16972,-0.0351 10.27465,-0.51705 15.19718,-1.9943 3.57151,-0.46356 6.49272,-2.50892 9.65641,-4.09744 8.42582,-7.37974 13.00832,-18.06564 17.57052,-28.0359 0.86892,-3.26025 2.2869,-6.42579 3.28717,-9.65641 1.07329,-3.36221 1.6901,-6.78292 2.86283,-10.09743 0.82693,-4.73683 2.29943,-9.29081 2.77435,-14.11282 0.62265,-1.55945 0.91789,-3.22565 1.0859,-4.9 l -0.007,0.65638 z m 50.02052,19.51923 c -0.0237,-0.0124 -0.0753,-0.10021 0,0 z m -53.15257,20.73077 c 0.0594,-0.0438 0.27845,-0.0587 0,0 z m -61.02564,7.21282 c 0.0305,-0.0222 0.12301,-0.0154 0,0 z m 113.96154,18.18718 c -0.0434,0.0696 0.0741,-0.2337 0,0 z m -481.13077,33.83975 c 0.006,-0.0154 0.0689,-0.0255 0,0 z m 496.71282,32.23717 c 0.0477,-0.0979 0.42498,-0.18187 0,0 z m -504.12307,12.42692 c -0.16424,-0.0326 -0.46688,-0.40332 0,0 z m 590.55384,7.91795 c 0.6447,0.90828 -0.43214,-0.48728 0,0 z m -562.51923,24.56411 c -0.007,-0.01 -0.0131,-0.0482 0,0 z m 171.71795,69.70897 c 0.0823,0.0366 -0.22867,-0.0627 0,0 z m 121.11282,8.54744 c -0.0273,-0.0311 -0.0547,-0.17717 0,0 z m 11.86538,5.8641 c -0.0117,-0.009 -0.019,-0.0558 0,0 z m -209.92692,0.22693 c -0.0334,-0.0217 -0.069,-0.14868 0,0 z m 339.95385,17.00384 c -0.0309,0.046 0.0304,-0.0629 0,0 z"
         id="path6" />
      <path
         style="fill:#f9f9f9;stroke-width:0.65641;stroke-linecap:round;stroke-linejoin:round"
         d="m 572.33333,537.98718 c -3.0865,-0.19751 -8.31498,0.6497 -7.50897,4.85897 1.52954,2.9821 5.56174,3.80119 6.61026,7.13077 1.38326,2.3453 0.63432,5.93958 0.26923,8.61026 -1.39442,3.28358 -4.68533,5.08543 -6.80129,7.66795 -1.10375,4.28587 4.54935,4.18726 7.29231,3.96154 3.08826,-0.16314 6.55633,-0.1356 9.14616,-1.83846 5.32578,-1.18117 9.81117,-5.91878 11.57436,-10.98334 1.48552,-10.68622 -8.91995,-20.47943 -19.45129,-19.41795 l -0.65638,0.006 z"
         id="path7" />
      <path
         style="fill:#f9f9f9;stroke-width:0.65641;stroke-linecap:round;stroke-linejoin:round"
         d="m 507.03333,594.89744 c -3.59816,0.0967 -4.89743,3.92591 -6.65512,6.25 0.0412,4.61357 4.60289,8.11992 8.69871,9.44871 2.33833,1.17231 4.82723,1.67662 7.0577,2.97949 3.431,0.38171 6.1998,2.5655 9.76538,2.55898 4.68408,1.99254 10.00468,1.61627 14.80641,3.2782 9.25335,0.89038 18.74664,0.85223 27.93846,-0.46795 3.45838,-1.24238 7.18081,-1.83345 10.57564,-3.30256 2.25855,-0.50933 4.14819,-1.92088 6.41154,-2.58974 2.13633,-1.77788 5.36824,-2.05452 7.14102,-4.6077 3.37943,-1.89868 4.02996,-9.09375 -0.92051,-9.05384 -3.39114,-0.28414 -6.07511,2.02755 -9.42051,2.24871 -2.67542,1.66454 -6.03302,1.69652 -8.87307,3.06539 -4.82012,0.53538 -9.30056,2.39618 -14.2359,1.87051 -5.77555,0.27933 -11.34024,-0.32572 -16.98055,-1.50114 -4.4169,0.038 -8.21742,-2.10285 -12.56945,-2.53988 -2.25613,-1.70577 -5.34141,-1.58591 -7.70385,-3.09488 -5.08041,-1.08173 -9.72477,-4.36761 -15.0359,-4.5423 z m 23.19872,8.47307 c 0.0122,0.0362 -0.0193,-0.0371 0,0 z m 6.94872,1.43975 c 0.13874,0.24464 -0.11293,-0.13376 0,0 z m -23.5859,7.11025 c -0.0186,-0.0136 -0.0326,-0.092 0,0 z"
         id="path8" />
    </g>
  </g>
</svg>
